<?xml version="1.0" standalone="no"?>
<!DOCTYPE svg PUBLIC "-//W3C//DTD SVG 20010904//EN"
 "http://www.w3.org/TR/2001/REC-SVG-20010904/DTD/svg10.dtd">
<svg version="1.0" xmlns="http://www.w3.org/2000/svg"
 width="192.000000pt" height="192.000000pt" viewBox="0 0 192.000000 192.000000"
 preserveAspectRatio="xMidYMid meet">
<metadata>
Created by potrace 1.14, written by Peter Selinger 2001-2017
</metadata>
<g transform="translate(0.000000,192.000000) scale(0.100000,-0.100000)"
fill="#000000" stroke="none">
<path d="M1001 1886 c2 -2 24 -6 49 -9 30 -4 38 -3 25 3 -19 8 -83 14 -74 6z"/>
<path d="M923 1873 c9 -2 23 -2 30 0 6 3 -1 5 -18 5 -16 0 -22 -2 -12 -5z"/>
<path d="M838 1863 c6 -2 18 -2 25 0 6 3 1 5 -13 5 -14 0 -19 -2 -12 -5z"/>
<path d="M493 1698 c-22 -26 -37 -48 -30 -48 3 0 17 16 31 35 30 39 30 46 -1
13z"/>
<path d="M1340 1718 c0 -4 11 -31 24 -60 47 -100 68 -230 64 -385 -4 -156 -16
-195 -88 -285 -45 -57 -55 -91 -11 -40 15 17 32 32 37 32 19 0 132 -166 149
-220 4 -13 22 -44 40 -69 60 -87 103 -176 151 -321 70 -211 122 -352 134 -364
6 -6 -5 34 -25 89 -20 55 -42 123 -49 150 -36 131 -100 291 -151 373 -30 48
-71 118 -91 156 -36 69 -74 128 -128 199 -26 34 -27 39 -13 55 9 9 26 40 38
67 19 44 22 68 22 205 1 131 -2 168 -22 239 -20 76 -42 130 -70 171 -6 8 -11
12 -11 8z"/>
<path d="M411 1588 c-20 -51 -36 -179 -36 -288 0 -104 3 -121 28 -175 15 -33
47 -80 70 -104 42 -44 140 -97 158 -85 6 3 31 -4 57 -16 57 -27 182 -38 235
-21 60 20 42 29 -24 13 -59 -15 -62 -14 -76 4 -11 15 -15 16 -22 5 -21 -33
-167 25 -226 90 -20 23 -39 38 -43 35 -3 -4 7 -20 23 -36 34 -36 28 -47 -13
-26 -54 28 -106 99 -136 185 -25 73 -28 89 -22 159 4 42 12 104 18 137 5 33
10 71 10 85 0 14 4 33 9 43 6 9 7 17 4 17 -3 0 -9 -10 -14 -22z"/>
<path d="M492 1473 c-18 -61 -21 -120 -10 -186 5 -34 9 -85 9 -112 -1 -28 3
-62 8 -75 9 -22 10 -19 10 21 1 25 4 49 8 52 11 11 33 -14 33 -39 0 -15 7 -24
21 -26 14 -2 25 -15 33 -37 14 -42 42 -63 56 -41 9 14 7 30 -7 68 -3 8 4 12
21 12 24 0 26 4 26 40 0 39 12 52 26 29 12 -20 98 -69 120 -69 18 0 28 -11 42
-44 23 -51 37 -62 58 -45 12 10 14 23 10 52 -4 21 -4 54 0 74 6 30 10 34 33
31 25 -3 26 -6 29 -71 2 -37 -2 -100 -7 -139 -5 -40 -8 -76 -5 -80 3 -5 21 5
40 22 19 16 39 30 45 30 5 0 17 -16 25 -35 13 -32 44 -49 44 -25 0 6 -6 10
-13 10 -7 0 -19 16 -26 35 -15 41 -29 44 -61 10 -25 -27 -44 -24 -35 6 12 38
7 249 -6 265 -7 8 -14 26 -15 40 -4 36 -35 114 -45 114 -12 0 -12 -2 11 -51
25 -55 27 -109 4 -109 -9 0 -44 14 -76 30 -33 17 -63 29 -65 26 -3 -3 0 -21 7
-41 6 -20 9 -42 6 -50 -3 -8 -1 -17 4 -20 20 -12 10 -26 -12 -19 -47 14 -100
56 -127 100 -34 53 -44 41 -35 -42 7 -59 2 -64 -44 -40 -15 7 -43 20 -63 29
-49 21 -72 71 -77 169 -3 53 1 92 11 123 9 25 12 45 8 45 -4 0 -13 -17 -19
-37z m418 -268 l25 -15 -34 2 c-19 2 -36 9 -39 16 -5 16 17 15 48 -3z m30
-142 c0 -23 -4 -33 -12 -31 -18 6 -33 52 -24 73 10 28 36 -1 36 -42z m-290
-11 c0 -26 -25 -5 -28 24 -2 28 -2 28 13 10 8 -11 15 -26 15 -34z"/>
<path d="M1186 938 c-32 -41 -25 -50 8 -12 l25 29 25 -30 c20 -24 27 -28 37
-17 11 10 10 12 -4 12 -10 0 -23 11 -29 25 -15 33 -31 31 -62 -7z"/>
<path d="M744 843 c-3 -10 -11 -31 -19 -48 -32 -70 -58 -134 -81 -199 -13 -38
-29 -75 -36 -83 -21 -25 -66 -181 -73 -252 -6 -57 -3 -77 13 -113 45 -102 177
-139 298 -84 64 30 74 25 74 -31 0 -18 5 -33 11 -33 8 0 10 19 5 63 -5 48 -3
68 9 82 8 11 15 27 15 35 0 9 -7 5 -17 -10 -84 -120 -245 -148 -346 -59 -37
31 -50 78 -42 152 7 66 41 189 61 222 6 11 33 76 59 145 26 69 52 134 59 145
14 21 29 85 20 85 -2 0 -7 -8 -10 -17z"/>
<path d="M830 749 c0 -8 5 -30 10 -49 27 -89 30 -140 10 -183 -10 -23 -26 -63
-34 -88 -13 -35 -24 -49 -51 -62 -19 -9 -35 -22 -35 -28 0 -7 8 -5 19 5 26 24
42 12 34 -24 -3 -19 -1 -30 6 -30 6 0 11 9 11 19 0 20 45 170 62 206 17 37
108 85 108 57 0 -4 -20 -28 -45 -54 -40 -42 -45 -52 -44 -90 l2 -43 7 44 c8
49 54 101 90 101 32 0 36 -28 8 -50 -27 -20 -72 -113 -65 -133 2 -7 10 4 17
24 16 44 72 78 96 58 18 -15 18 -33 -1 -49 -9 -7 -26 -27 -37 -43 -17 -24 -19
-29 -6 -24 9 3 33 9 52 13 32 6 36 4 36 -15 0 -13 -12 -29 -31 -40 -39 -24
-67 -61 -46 -61 8 0 19 -12 25 -26 16 -33 92 -68 133 -59 41 9 86 49 99 89 18
55 -5 247 -38 311 -24 49 -72 105 -103 120 -44 23 -77 19 -112 -17 -17 -17
-45 -34 -62 -38 -16 -4 -36 -9 -44 -11 -10 -3 -20 21 -37 85 -23 86 -34 114
-34 85z m416 -367 c5 -37 3 -52 -5 -52 -23 0 -43 104 -24 124 11 10 21 -15 29
-72z"/>
<path d="M1410 458 c29 -53 107 -294 131 -400 6 -32 16 -58 21 -58 5 0 7 8 4
18 -3 9 -12 44 -20 77 -40 168 -133 415 -156 415 -5 0 5 -24 20 -52z"/>
</g>
</svg>
